PathFileType	4	(X/Y/Z)	/Users/itak/Documents/Research/Walk-IL/dataset/trc/00227_00009.trc
DataRate	CameraRate	NumFrames	NumMarkers	Units	OrigDataRate	OrigDataStartFrame	OrigNumFrames
100.000000	100.000000	4	53	mm	100.000000	538	861
Frame#	Time	RPSI			LPSI			L3			STRN			T10			C7			CLAV			RBAK			LBAK			LSHO			LUPA			LAEL			LAOL			LWTS			LWPS			LFRA			LIFD			LHPS			LHTS			RSHO			RUPA			RAEL			RAOL			RWTS			RWPS			RFRA			RIFD			RHTS			RHPS			RBHD			LFHD			RFHD			LBHD			LHIP			RHIP			RASI			LASI			LKNE			LTHI			LANK			LTIP			LTOE			LMT1			LMT5			LHEE			RKNE			RTHI			RANK			RTIP			RTOE			RMT1			RMT5			RHEE			
		X1	Y1	Z1	X2	Y2	Z2	X3	Y3	Z3	X4	Y4	Z4	X5	Y5	Z5	X6	Y6	Z6	X7	Y7	Z7	X8	Y8	Z8	X9	Y9	Z9	X10	Y10	Z10	X11	Y11	Z11	X12	Y12	Z12	X13	Y13	Z13	X14	Y14	Z14	X15	Y15	Z15	X16	Y16	Z16	X17	Y17	Z17	X18	Y18	Z18	X19	Y19	Z19	X20	Y20	Z20	X21	Y21	Z21	X22	Y22	Z22	X23	Y23	Z23	X24	Y24	Z24	X25	Y25	Z25	X26	Y26	Z26	X27	Y27	Z27	X28	Y28	Z28	X29	Y29	Z29	X30	Y30	Z30	X31	Y31	Z31	X32	Y32	Z32	X33	Y33	Z33	X34	Y34	Z34	X35	Y35	Z35	X36	Y36	Z36	X37	Y37	Z37	X38	Y38	Z38	X39	Y39	Z39	X40	Y40	Z40	X41	Y41	Z41	X42	Y42	Z42	X43	Y43	Z43	X44	Y44	Z44	X45	Y45	Z45	X46	Y46	Z46	X47	Y47	Z47	X48	Y48	Z48	X49	Y49	Z49	X50	Y50	Z50	X51	Y51	Z51	X52	Y52	Z52	X53	Y53	Z53	

539	5.38	-123.8302688598633	1026.161499023438	-621.4139404296875	-46.85982131958008	1021.181335449219	-530.4560546875	-83.60361480712891	1111.919555664062	-568.2085571289062	-276.99462890625	1273.222900390625	-391.40380859375	-100.2375411987305	1235.083251953125	-580.7733154296875	-167.7421722412109	1491.402465820312	-526.1619262695312	-270.9039611816406	1392.521606445312	-407.8150329589844	-156.763671875	1355.726684570312	-637.385498046875	-69.59989166259766	1461.017822265625	-467.4728698730469	-88.0203857421875	1459.058837890625	-362.6773376464844	1.703874707221985	1346.668701171875	-340.263671875	39.0927619934082	1138.652465820312	-331.1112060546875	33.83528900146484	1123.833862304688	-416.9536743164062	-34.62964248657227	898.7554931640625	-278.8030700683594	48.19569396972656	887.8375854492188	-265.9112548828125	49.9965705871582	1031.6142578125	-307.6657104492188	-17.49077796936035	706.5193481445312	-280.6576843261719	42.60744094848633	798.12841796875	-254.7080230712891	-24.69313430786133	797.2021484375	-241.3373260498047	-326.2113952636719	1434.963500976562	-597.4146118164062	-358.605224609375	1371.488403320312	-658.557861328125	-377.8453979492188	1097.128662109375	-720.248291015625	-291.2362670898438	1083.980712890625	-682.885009765625	-455.1305847167969	882.7211303710938	-601.16943359375	-463.6106567382812	871.5252075195312	-684.5618286132812	-408.7730102539062	1029.789916992188	-713.1783447265625	-480.3527526855469	690.7730102539062	-590.34814453125	-504.0540161132812	766.3109130859375	-587.36376953125	-502.6467895507812	767.173583984375	-660.0919799804688	-277.6790771484375	1648.861450195312	-513.8919067382812	-305.3915100097656	1647.929565429688	-287.9097290039062	-390.2049255371094	1642.311645507812	-341.8948364257812	-189.3805236816406	1651.964965820312	-405.273681640625	-42.8692626953125	952.3822021484375	-360.2363586425781	-267.2256469726562	986.6317138671875	-648.9965209960938	-321.8123474121094	1019.765197753906	-558.658203125	-151.3641967773438	995.5773315429688	-337.6118774414062	-216.803466796875	496.6265258789062	-299.3983154296875	-144.5494842529297	624.5707397460938	-304.3285827636719	-320.107666015625	30.6250114440918	-294.7837829589844	-252.5634460449219	271.1441345214844	-300.865234375	-460.1846008300781	103.3609390258789	-147.7931671142578	-469.2094116210938	82.59832000732422	-223.7596435546875	-366.9216613769531	56.60011291503906	-180.5798492431641	-333.8584899902344	31.25773048400879	-374.7713928222656	-181.6164093017578	508.1394958496094	-673.0872802734375	-281.3604125976562	761.7653198242188	-649.1951904296875	-14.38163089752197	37.48089981079102	-748.2191772460938	-153.3203735351562	393.3410949707031	-678.8347778320312	-199.3465270996094	39.95538330078125	-638.8458862304688	-133.7418975830078	41.44522857666016	-619.4940795898438	-124.1528930664062	28.61899375915527	-740.7333374023438	62.74968719482422	49.36706924438477	-715.52880859375	
540	5.39	-130.5597686767578	1024.977172851562	-616.1802978515625	-52.96286392211914	1020.262145996094	-525.741943359375	-89.82187652587891	1110.706298828125	-563.053466796875	-281.6782531738281	1272.669311523438	-385.5149536132812	-105.9728317260742	1233.992553710938	-575.5083618164062	-172.3136901855469	1490.641845703125	-520.7398071289062	-275.2983703613281	1391.915405273438	-401.9614562988281	-161.9210205078125	1354.830200195312	-631.9229736328125	-74.07018280029297	1459.867309570312	-462.4537353515625	-92.04201507568359	1457.85888671875	-357.5814208984375	-2.401154279708862	1345.334350585938	-335.5017700195312	35.12752914428711	1137.414794921875	-326.0235900878906	29.38821411132812	1122.478759765625	-411.8430480957031	-37.54811859130859	897.1853637695312	-273.6618347167969	45.30855178833008	886.6232299804688	-261.0133972167969	46.4173469543457	1030.410522460938	-302.6813354492188	-19.48756980895996	705.0352172851562	-275.653564453125	40.24073028564453	796.9204711914062	-249.8471221923828	-27.07643127441406	795.6616821289062	-236.3209991455078	-331.2046813964844	1434.374145507812	-591.4632568359375	-363.7850036621094	1370.788696289062	-652.4647216796875	-383.3412170410156	1096.336669921875	-713.7905883789062	-296.42578125	1083.299682617188	-677.0719604492188	-459.2917785644531	882.0174560546875	-593.7235717773438	-468.5498962402344	870.7044067382812	-676.9912719726562	-414.1595458984375	1028.948364257812	-706.3715209960938	-484.3196716308594	690.1177368164062	-582.2680053710938	-508.0271301269531	765.624267578125	-579.2234497070312	-507.3381958007812	766.3475952148438	-652.0077514648438	-282.2005920410156	1648.463989257812	-507.6492919921875	-307.7202453613281	1647.49609375	-281.4205627441406	-392.9633483886719	1642.17138671875	-334.5097045898438	-192.7746734619141	1651.275634765625	-399.9157409667969	-48.36359786987305	951.6189575195312	-355.3658142089844	-274.2755737304688	985.6791381835938	-642.8150024414062	-328.3550720214844	1019.041625976562	-552.3546752929688	-156.6212005615234	994.8350219726562	-332.3673706054688	-221.8714447021484	495.6501770019531	-295.2289428710938	-149.8415374755859	623.6797485351562	-299.9139404296875	-322.0405883789062	30.43328285217285	-293.7858581542969	-257.0060424804688	270.0624084472656	-297.6861877441406	-464.1798095703125	97.27680206298828	-145.509765625	-472.8105163574219	77.79844665527344	-222.030517578125	-370.087890625	53.07732772827148	-179.3047027587891	-336.2409362792969	32.05783081054688	-373.7885437011719	-187.2650909423828	507.89306640625	-668.9226684570312	-288.1160583496094	760.9561157226562	-643.4017944335938	-14.97507095336914	39.11019134521484	-748.5269775390625	-157.8075561523438	393.1871032714844	-675.6998291015625	-199.4750518798828	39.92344284057617	-638.813720703125	-134.0189361572266	41.64612579345703	-619.6589965820312	-124.3924942016602	28.64834022521973	-740.7234497070312	62.20837020874023	51.91962051391602	-716.1461791992188	
541	5.4	-137.4234161376953	1023.959594726562	-610.9014892578125	-59.11526489257812	1019.654846191406	-521.03515625	-96.13912963867188	1109.689575195312	-557.8535766601562	-286.3886108398438	1272.3564453125	-379.5193786621094	-111.7183303833008	1233.17529296875	-570.1707153320312	-176.9227905273438	1490.11181640625	-515.2327880859375	-279.7158203125	1391.542358398438	-396.0104675292969	-167.0821838378906	1354.154174804688	-626.3528442382812	-78.56268310546875	1458.968383789062	-457.3581237792969	-96.08064270019531	1456.87744140625	-352.3979797363281	-6.55436372756958	1344.198364257812	-330.6757202148438	31.0642261505127	1136.363037109375	-320.8327026367188	24.78786468505859	1121.277099609375	-406.6096801757812	-40.54301071166992	895.8236083984375	-268.3316040039062	42.36727523803711	885.5947265625	-256.0196228027344	42.74960708618164	1029.396118164062	-297.5958251953125	-21.58549118041992	703.7628173828125	-270.2995910644531	37.81303787231445	795.9249877929688	-244.8344421386719	-29.50314331054688	794.3661499023438	-231.0535583496094	-336.2144775390625	1433.994750976562	-585.4537353515625	-368.9480285644531	1370.2578125	-646.3220825195312	-388.6404418945312	1095.703491210938	-707.222412109375	-301.4617614746094	1082.80078125	-671.0475463867188	-463.3583984375	881.4588012695312	-586.2973022460938	-473.2856140136719	870.0287475585938	-669.44677734375	-419.3529968261719	1028.263549804688	-699.4934692382812	-488.2154541015625	689.5951538085938	-574.2767333984375	-511.9212951660156	765.071533203125	-571.1876831054688	-511.8158264160156	765.65771484375	-644.0093994140625	-286.7480773925781	1648.314086914062	-501.2880249023438	-310.0929870605469	1647.298950195312	-274.8345336914062	-395.7438354492188	1642.254028320312	-327.0301818847656	-196.2059631347656	1650.8291015625	-394.4481811523438	-53.73602294921875	951.3247680664062	-350.4549560546875	-281.3902587890625	984.7293090820312	-636.4401245117188	-334.9555053710938	1018.426452636719	-545.8020629882812	-161.7105255126953	994.486572265625	-327.011474609375	-227.0037536621094	495.2422790527344	-290.5487976074219	-155.2520294189453	623.3842163085938	-295.0598754882812	-323.3265075683594	30.35271072387695	-292.9895324707031	-261.1576232910156	269.3932495117188	-294.10009765625	-468.21533203125	90.92643737792969	-143.9297485351562	-476.0895690917969	72.85081481933594	-221.0634002685547	-373.0486450195312	49.66791915893555	-178.3573455810547	-337.6625671386719	33.04096221923828	-372.9704284667969	-193.2853851318359	507.6637878417969	-664.3865356445312	-294.9858703613281	760.22265625	-637.2449340820312	-15.6554012298584	41.02096557617188	-748.8744506835938	-162.6422576904297	393.0871887207031	-672.2845458984375	-199.6179962158203	39.88967132568359	-638.778076171875	-134.3345031738281	41.89443969726562	-619.8031005859375	-124.7052459716797	28.71197700500488	-740.6881713867188	61.54901504516602	54.85132598876953	-716.804931640625	
542	5.41	-144.422607421875	1023.164184570312	-605.5819091796875	-65.31571197509766	1019.390930175781	-516.3502807617188	-102.5495834350586	1108.920166015625	-552.6531372070312	-291.1166687011719	1272.311889648438	-373.4293518066406	-117.481201171875	1232.677734375	-564.8001098632812	-181.5865936279297	1489.841430664062	-509.6599731445312	-284.1573791503906	1391.434692382812	-389.9717102050781	-172.2924041748047	1353.739624023438	-620.7025756835938	-83.08601379394531	1458.3623046875	-452.2171020507812	-100.1410751342773	1456.163940429688	-347.161376953125	-10.75504207611084	1343.3154296875	-325.8153076171875	26.87899589538574	1135.556640625	-315.5614929199219	20.02246856689453	1120.2880859375	-401.2775268554688	-43.63589096069336	894.7327270507812	-262.8177490234375	39.35620880126953	884.8262329101562	-250.9298400878906	38.97014236450195	1028.637329101562	-292.4204406738281	-23.78103256225586	702.753662109375	-264.6376342773438	35.31082916259766	795.2069091796875	-239.6824645996094	-31.97117233276367	793.366455078125	-225.5504150390625	-341.2727966308594	1433.871826171875	-579.38525390625	-374.1308288574219	1369.9453125	-640.122314453125	-393.7400817871094	1095.280883789062	-700.5432739257812	-306.3467407226562	1082.552490234375	-664.789306640625	-467.3349914550781	881.0880126953125	-578.8925170898438	-477.8048706054688	869.5396728515625	-661.9453125	-424.3419189453125	1027.785034179688	-692.548095703125	-492.0181579589844	689.240966796875	-566.402099609375	-515.7221069335938	764.6834716796875	-563.2797241210938	-516.0555419921875	765.1434936523438	-636.1228637695312	-291.3221435546875	1648.427856445312	-494.8131713867188	-312.5014343261719	1647.34619140625	-268.1521606445312	-398.5477905273438	1642.568115234375	-319.4595947265625	-199.6798248291016	1650.63818359375	-388.8802795410156	-58.93561935424805	951.5299682617188	-345.5512084960938	-288.544921875	983.840576171875	-629.9050903320312	-341.5951232910156	1017.955993652344	-539.0034790039062	-166.5949554443359	994.5781860351562	-321.5455017089844	-232.1585388183594	495.4438171386719	-285.3486022949219	-160.7686309814453	623.7298583984375	-289.7808532714844	-324.1588439941406	30.33891487121582	-292.2583312988281	-265.0235900878906	269.1467895507812	-290.084716796875	-472.1716613769531	84.75740051269531	-142.8823852539062	-478.9980163574219	68.13018035888672	-220.6351013183594	-375.7705383300781	46.6257438659668	-177.5814971923828	-338.345458984375	34.09738922119141	-372.1848449707031	-199.7406005859375	507.4608764648438	-659.4411010742188	-301.9456787109375	759.5899658203125	-630.6929931640625	-16.44771766662598	43.24409866333008	-749.252197265625	-167.8652801513672	393.0479736328125	-668.5653076171875	-199.7822875976562	39.85646438598633	-638.7457275390625	-134.6812744140625	42.2008056640625	-619.9189453125	-125.1030349731445	28.81107521057129	-740.62109375	60.74049377441406	58.22465896606445	-717.4747314453125	
